<svg xmlns="http://www.w3.org/2000/svg" width="880" height="162" viewBox="0 0 880 162" role="img">
<text x="0" y="16" font-family="Helvetica, Arial, sans-serif" font-size="16" font-weight="600" fill="#111111">KV-cache quantization perplexity</text>
<text x="0" y="34" font-family="Helvetica, Arial, sans-serif" font-size="11.5" fill="#777777">Qwen3.5-9B-Q4_K_M.gguf · 2026-09-28 · 20260928-gguf-full</text>
<line x1="170.9" y1="56" x2="170.9" y2="116" stroke="#EBEBEB" stroke-width="1"/>
<text x="170.9" y="132" font-family="Helvetica, Arial, sans-serif" font-size="11" fill="#666666" text-anchor="middle">0.0</text>
<line x1="328.8" y1="56" x2="328.8" y2="116" stroke="#EBEBEB" stroke-width="1"/>
<text x="328.8" y="132" font-family="Helvetica, Arial, sans-serif" font-size="11" fill="#666666" text-anchor="middle">5.0</text>
<line x1="486.7" y1="56" x2="486.7" y2="116" stroke="#EBEBEB" stroke-width="1"/>
<text x="486.7" y="132" font-family="Helvetica, Arial, sans-serif" font-size="11" fill="#666666" text-anchor="middle">10</text>
<line x1="644.6" y1="56" x2="644.6" y2="116" stroke="#EBEBEB" stroke-width="1"/>
<text x="644.6" y="132" font-family="Helvetica, Arial, sans-serif" font-size="11" fill="#666666" text-anchor="middle">15</text>
<line x1="718.8" y1="52" x2="718.8" y2="116" stroke="#555555" stroke-width="1.4" stroke-dasharray="5 4"/>
<text x="718.8" y="48" font-family="Helvetica, Arial, sans-serif" font-size="10.5" fill="#555555" text-anchor="middle">f16 baseline</text>
<text x="162.86" y="68.0" font-family="Helvetica, Arial, sans-serif" font-size="11" fill="#222222" text-anchor="end">b11202-cuda · f16 @2048</text>
<rect x="170.9" y="58.0" width="548.0" height="16" rx="2.5" fill="#999999"/>
<line x1="689.8" y1="64.0" x2="747.8" y2="64.0" stroke="#333333" stroke-width="1.2"/>
<line x1="689.8" y1="60.5" x2="689.8" y2="67.5" stroke="#333333" stroke-width="1.2"/>
<line x1="747.8" y1="60.5" x2="747.8" y2="67.5" stroke="#333333" stroke-width="1.2"/>
<text x="755.8" y="68.0" font-family="ui-monospace, SFMono-Regular, Menlo, Consolas, monospace" font-size="12.5" fill="#222222" font-weight="600">17.35 ppl</text>
<text x="162.86" y="98.0" font-family="Helvetica, Arial, sans-serif" font-size="11" fill="#222222" text-anchor="end">v0.9.4 · f16 @2048</text>
<rect x="170.9" y="88.0" width="548.0" height="16" rx="2.5" fill="#999999"/>
<line x1="689.8" y1="94.0" x2="747.8" y2="94.0" stroke="#333333" stroke-width="1.2"/>
<line x1="689.8" y1="90.5" x2="689.8" y2="97.5" stroke="#333333" stroke-width="1.2"/>
<line x1="747.8" y1="90.5" x2="747.8" y2="97.5" stroke="#333333" stroke-width="1.2"/>
<text x="755.8" y="98.0" font-family="ui-monospace, SFMono-Regular, Menlo, Consolas, monospace" font-size="12.5" fill="#222222" font-weight="600">17.35 ppl</text>
<line x1="170.9" y1="132" x2="794.0" y2="132" stroke="#C9C9C9" stroke-width="1"/>
<text x="0" y="152.0" font-family="Helvetica, Arial, sans-serif" font-size="10.5" fill="#999999">llama-perplexity on the offline corpus; whiskers: ± standard error. Lower is better; values from different context rungs are not comparable.</text>
</svg>
