<svg xmlns="http://www.w3.org/2000/svg" width="880" height="170" viewBox="0 0 880 170" role="img">
<text x="0" y="16" font-family="Helvetica, Arial, sans-serif" font-size="16" font-weight="600" fill="#111111">Cold start and idle wake</text>
<text x="0" y="34" font-family="Helvetica, Arial, sans-serif" font-size="11.5" fill="#777777">qwen3-1.7b · 2026-09-30 · 20260929-sglang-safetensors</text>
<line x1="96.9" y1="56" x2="96.9" y2="124" stroke="#EBEBEB" stroke-width="1"/>
<text x="96.9" y="140" font-family="Helvetica, Arial, sans-serif" font-size="11" fill="#666666" text-anchor="middle">1e-2</text>
<line x1="285.5" y1="56" x2="285.5" y2="124" stroke="#EBEBEB" stroke-width="1"/>
<text x="285.5" y="140" font-family="Helvetica, Arial, sans-serif" font-size="11" fill="#666666" text-anchor="middle">1e-1</text>
<line x1="474.2" y1="56" x2="474.2" y2="124" stroke="#EBEBEB" stroke-width="1"/>
<text x="474.2" y="140" font-family="Helvetica, Arial, sans-serif" font-size="11" fill="#666666" text-anchor="middle">1e0</text>
<line x1="662.8" y1="56" x2="662.8" y2="124" stroke="#EBEBEB" stroke-width="1"/>
<text x="662.8" y="140" font-family="Helvetica, Arial, sans-serif" font-size="11" fill="#666666" text-anchor="middle">1e1</text>
<line x1="851.5" y1="56" x2="851.5" y2="124" stroke="#EBEBEB" stroke-width="1"/>
<text x="851.5" y="140" font-family="Helvetica, Arial, sans-serif" font-size="11" fill="#666666" text-anchor="middle">1e2</text>
<rect x="723.1" y="40" width="10" height="10" rx="2" fill="#0072B2"/>
<text x="737.1" y="49" font-family="Helvetica, Arial, sans-serif" font-size="11" fill="#222222" text-anchor="end">blazar</text>
<rect x="642.2" y="40" width="10" height="10" rx="2" fill="#009E73"/>
<text x="656.2" y="49" font-family="Helvetica, Arial, sans-serif" font-size="11" fill="#222222" text-anchor="end">ollama</text>
<text x="176.5" y="77.0" font-family="Helvetica, Arial, sans-serif" font-size="11" fill="#222222" text-anchor="end">cold start to first token</text>
<line x1="536.8" y1="73.0" x2="750.8" y2="73.0" stroke="#CCCCCC" stroke-width="2.5"/>
<circle cx="536.8" cy="73.0" r="5" fill="#009E73"/>
<text x="527.8" y="77.0" font-family="ui-monospace, SFMono-Regular, Menlo, Consolas, monospace" font-size="12.5" fill="#222222" text-anchor="end">2.15 s</text>
<circle cx="750.8" cy="73.0" r="5" fill="#0072B2"/>
<text x="759.8" y="77.0" font-family="ui-monospace, SFMono-Regular, Menlo, Consolas, monospace" font-size="12.5" fill="#222222" text-anchor="start">29.25 s</text>
<text x="176.5" y="111.0" font-family="Helvetica, Arial, sans-serif" font-size="11" fill="#222222" text-anchor="end">idle wake to first token</text>
<line x1="217.7" y1="107.0" x2="532.9" y2="107.0" stroke="#CCCCCC" stroke-width="2.5"/>
<circle cx="217.7" cy="107.0" r="5" fill="#0072B2"/>
<text x="208.7" y="111.0" font-family="ui-monospace, SFMono-Regular, Menlo, Consolas, monospace" font-size="12.5" fill="#222222" text-anchor="end">0.04 s</text>
<circle cx="532.9" cy="107.0" r="5" fill="#009E73"/>
<text x="541.9" y="111.0" font-family="ui-monospace, SFMono-Regular, Menlo, Consolas, monospace" font-size="12.5" fill="#222222" text-anchor="start">2.05 s</text>
<line x1="184.5" y1="140" x2="784.0" y2="140" stroke="#C9C9C9" stroke-width="1"/>
<text x="0" y="160.0" font-family="Helvetica, Arial, sans-serif" font-size="10.5" fill="#999999">Dots: median across cells, log scale. Lower is better. ollama cold row reflects a warm daemon (no service restart in this campaign).</text>
</svg>
