<svg xmlns="http://www.w3.org/2000/svg" width="880" height="162" viewBox="0 0 880 162" role="img">
<text x="0" y="16" font-family="Helvetica, Arial, sans-serif" font-size="16" font-weight="600" fill="#111111">Single-stream decode throughput</text>
<text x="0" y="34" font-family="Helvetica, Arial, sans-serif" font-size="11.5" fill="#777777">Qwen3.5-9B-Q4_K_M.gguf · 2026-09-29 · 20260929-f1f2f3-livecheck</text>
<line x1="150.4" y1="56" x2="150.4" y2="116" stroke="#EBEBEB" stroke-width="1"/>
<text x="150.4" y="132" font-family="Helvetica, Arial, sans-serif" font-size="11" fill="#666666" text-anchor="middle">0.0</text>
<line x1="295.1" y1="56" x2="295.1" y2="116" stroke="#EBEBEB" stroke-width="1"/>
<text x="295.1" y="132" font-family="Helvetica, Arial, sans-serif" font-size="11" fill="#666666" text-anchor="middle">10</text>
<line x1="439.9" y1="56" x2="439.9" y2="116" stroke="#EBEBEB" stroke-width="1"/>
<text x="439.9" y="132" font-family="Helvetica, Arial, sans-serif" font-size="11" fill="#666666" text-anchor="middle">20</text>
<line x1="584.6" y1="56" x2="584.6" y2="116" stroke="#EBEBEB" stroke-width="1"/>
<text x="584.6" y="132" font-family="Helvetica, Arial, sans-serif" font-size="11" fill="#666666" text-anchor="middle">30</text>
<line x1="729.4" y1="56" x2="729.4" y2="116" stroke="#EBEBEB" stroke-width="1"/>
<text x="729.4" y="132" font-family="Helvetica, Arial, sans-serif" font-size="11" fill="#666666" text-anchor="middle">40</text>
<text x="142.4" y="68.0" font-family="Helvetica, Arial, sans-serif" font-size="11" fill="#222222" text-anchor="end">blazar · b11202-cuda</text>
<rect x="150.4" y="58.0" width="595.8" height="16" rx="2.5" fill="#0072B2"/>
<line x1="745.7" y1="64.0" x2="746.3" y2="64.0" stroke="#333333" stroke-width="1.2"/>
<line x1="745.7" y1="60.5" x2="745.7" y2="67.5" stroke="#333333" stroke-width="1.2"/>
<line x1="746.3" y1="60.5" x2="746.3" y2="67.5" stroke="#333333" stroke-width="1.2"/>
<text x="754.3" y="68.0" font-family="ui-monospace, SFMono-Regular, Menlo, Consolas, monospace" font-size="12.5" fill="#222222" font-weight="600">41.2 t/s</text>
<text x="142.4" y="98.0" font-family="Helvetica, Arial, sans-serif" font-size="11" fill="#222222" text-anchor="end">blazar · v0.9.4</text>
<rect x="150.4" y="88.0" width="313.6" height="16" rx="2.5" fill="#CC79A7"/>
<line x1="462.8" y1="94.0" x2="464.9" y2="94.0" stroke="#333333" stroke-width="1.2"/>
<line x1="462.8" y1="90.5" x2="462.8" y2="97.5" stroke="#333333" stroke-width="1.2"/>
<line x1="464.9" y1="90.5" x2="464.9" y2="97.5" stroke="#333333" stroke-width="1.2"/>
<text x="472.9" y="98.0" font-family="ui-monospace, SFMono-Regular, Menlo, Consolas, monospace" font-size="12.5" fill="#222222" font-weight="600">21.7 t/s</text>
<line x1="150.4" y1="132" x2="794.0" y2="132" stroke="#C9C9C9" stroke-width="1"/>
<text x="0" y="152.0" font-family="Helvetica, Arial, sans-serif" font-size="10.5" fill="#999999">Bars: median of 5 runs. Whiskers: interquartile range. Higher is better.</text>
</svg>
