<svg xmlns="http://www.w3.org/2000/svg" width="880" height="358" viewBox="0 0 880 358" role="img">
<text x="0" y="16" font-family="Helvetica, Arial, sans-serif" font-size="16" font-weight="600" fill="#111111">GPU memory vs concurrency</text>
<text x="0" y="34" font-family="Helvetica, Arial, sans-serif" font-size="11.5" fill="#777777">Qwen3.5-9B-Q4_K_M.gguf · 2026-09-24 · 20260924-all-engines</text>
<line x1="58" y1="295.3" x2="725.6" y2="295.3" stroke="#EBEBEB" stroke-width="1"/>
<text x="50" y="299.3" font-family="Helvetica, Arial, sans-serif" font-size="11" fill="#666666" text-anchor="end">5.5k</text>
<line x1="58" y1="250.4" x2="725.6" y2="250.4" stroke="#EBEBEB" stroke-width="1"/>
<text x="50" y="254.4" font-family="Helvetica, Arial, sans-serif" font-size="11" fill="#666666" text-anchor="end">5.75k</text>
<line x1="58" y1="205.5" x2="725.6" y2="205.5" stroke="#EBEBEB" stroke-width="1"/>
<text x="50" y="209.5" font-family="Helvetica, Arial, sans-serif" font-size="11" fill="#666666" text-anchor="end">6k</text>
<line x1="58" y1="160.6" x2="725.6" y2="160.6" stroke="#EBEBEB" stroke-width="1"/>
<text x="50" y="164.6" font-family="Helvetica, Arial, sans-serif" font-size="11" fill="#666666" text-anchor="end">6.25k</text>
<line x1="58" y1="115.7" x2="725.6" y2="115.7" stroke="#EBEBEB" stroke-width="1"/>
<text x="50" y="119.7" font-family="Helvetica, Arial, sans-serif" font-size="11" fill="#666666" text-anchor="end">6.5k</text>
<line x1="58" y1="70.9" x2="725.6" y2="70.9" stroke="#EBEBEB" stroke-width="1"/>
<text x="50" y="74.9" font-family="Helvetica, Arial, sans-serif" font-size="11" fill="#666666" text-anchor="end">6.75k</text>
<text x="147.3" y="312" font-family="Helvetica, Arial, sans-serif" font-size="11" fill="#666666" text-anchor="middle">2.0</text>
<text x="325.8" y="312" font-family="Helvetica, Arial, sans-serif" font-size="11" fill="#666666" text-anchor="middle">4.0</text>
<text x="504.3" y="312" font-family="Helvetica, Arial, sans-serif" font-size="11" fill="#666666" text-anchor="middle">6.0</text>
<text x="682.8" y="312" font-family="Helvetica, Arial, sans-serif" font-size="11" fill="#666666" text-anchor="middle">8.0</text>
<line x1="58" y1="56" x2="58" y2="296" stroke="#C9C9C9" stroke-width="1"/>
<line x1="58" y1="296" x2="725.6" y2="296" stroke="#C9C9C9" stroke-width="1"/>
<text x="58" y="46" font-family="Helvetica, Arial, sans-serif" font-size="11" fill="#777777">VRAM peak MiB</text>
<text x="391.8" y="330" font-family="Helvetica, Arial, sans-serif" font-size="11" fill="#777777" text-anchor="middle">concurrent streams</text>
<polyline points="58.0,234.1 147.3,255.8 325.8,255.8 682.8,234.1" fill="none" stroke="#0072B2" stroke-width="2" stroke-linejoin="round"/>
<circle cx="58.0" cy="234.1" r="4" fill="#FFFFFF" stroke="#0072B2" stroke-width="2"/>
<circle cx="147.3" cy="255.8" r="4" fill="#FFFFFF" stroke="#0072B2" stroke-width="2"/>
<circle cx="325.8" cy="255.8" r="4" fill="#FFFFFF" stroke="#0072B2" stroke-width="2"/>
<circle cx="682.8" cy="234.1" r="4" fill="#FFFFFF" stroke="#0072B2" stroke-width="2"/>
<text x="691.8" y="238.1" font-family="Helvetica, Arial, sans-serif" font-size="11" fill="#0072B2" font-weight="600">blazar · b11147-cuda</text>
<polyline points="58.0,296.0 147.3,293.8 325.8,293.8 682.8,293.8" fill="none" stroke="#CC79A7" stroke-width="2" stroke-linejoin="round"/>
<circle cx="58.0" cy="296.0" r="4" fill="#FFFFFF" stroke="#CC79A7" stroke-width="2"/>
<circle cx="147.3" cy="293.8" r="4" fill="#FFFFFF" stroke="#CC79A7" stroke-width="2"/>
<circle cx="325.8" cy="293.8" r="4" fill="#FFFFFF" stroke="#CC79A7" stroke-width="2"/>
<circle cx="682.8" cy="293.8" r="4" fill="#FFFFFF" stroke="#CC79A7" stroke-width="2"/>
<text x="691.8" y="297.8" font-family="Helvetica, Arial, sans-serif" font-size="11" fill="#CC79A7" font-weight="600">blazar · v0.9.3</text>
<polyline points="58.0,125.4 147.3,125.4 325.8,125.4 682.8,125.4" fill="none" stroke="#009E73" stroke-width="2" stroke-linejoin="round"/>
<circle cx="58.0" cy="125.4" r="4" fill="#FFFFFF" stroke="#009E73" stroke-width="2"/>
<circle cx="147.3" cy="125.4" r="4" fill="#FFFFFF" stroke="#009E73" stroke-width="2"/>
<circle cx="325.8" cy="125.4" r="4" fill="#FFFFFF" stroke="#009E73" stroke-width="2"/>
<circle cx="682.8" cy="125.4" r="4" fill="#FFFFFF" stroke="#009E73" stroke-width="2"/>
<text x="691.8" y="129.4" font-family="Helvetica, Arial, sans-serif" font-size="11" fill="#009E73" font-weight="600">ollama · ollama-host</text>
<text x="0" y="352" font-family="Helvetica, Arial, sans-serif" font-size="10.5" fill="#999999">Peak device memory per sustained-load cell.</text>
</svg>
