<svg xmlns="http://www.w3.org/2000/svg" width="880" height="358" viewBox="0 0 880 358" role="img">
<text x="0" y="16" font-family="Helvetica, Arial, sans-serif" font-size="16" font-weight="600" fill="#111111">System throughput vs concurrency</text>
<text x="0" y="34" font-family="Helvetica, Arial, sans-serif" font-size="11.5" fill="#777777">Qwen3.5-9B-Q4_K_M.gguf · 2026-09-29 · 20260929-flagship-gguf</text>
<line x1="58" y1="296.0" x2="725.6" y2="296.0" stroke="#EBEBEB" stroke-width="1"/>
<text x="50" y="300.0" font-family="Helvetica, Arial, sans-serif" font-size="11" fill="#666666" text-anchor="end">0.0</text>
<line x1="58" y1="248.1" x2="725.6" y2="248.1" stroke="#EBEBEB" stroke-width="1"/>
<text x="50" y="252.1" font-family="Helvetica, Arial, sans-serif" font-size="11" fill="#666666" text-anchor="end">50</text>
<line x1="58" y1="200.3" x2="725.6" y2="200.3" stroke="#EBEBEB" stroke-width="1"/>
<text x="50" y="204.3" font-family="Helvetica, Arial, sans-serif" font-size="11" fill="#666666" text-anchor="end">100</text>
<line x1="58" y1="152.4" x2="725.6" y2="152.4" stroke="#EBEBEB" stroke-width="1"/>
<text x="50" y="156.4" font-family="Helvetica, Arial, sans-serif" font-size="11" fill="#666666" text-anchor="end">150</text>
<line x1="58" y1="104.6" x2="725.6" y2="104.6" stroke="#EBEBEB" stroke-width="1"/>
<text x="50" y="108.6" font-family="Helvetica, Arial, sans-serif" font-size="11" fill="#666666" text-anchor="end">200</text>
<line x1="58" y1="56.7" x2="725.6" y2="56.7" stroke="#EBEBEB" stroke-width="1"/>
<text x="50" y="60.7" font-family="Helvetica, Arial, sans-serif" font-size="11" fill="#666666" text-anchor="end">250</text>
<text x="225.3" y="312" font-family="Helvetica, Arial, sans-serif" font-size="11" fill="#666666" text-anchor="middle">5.0</text>
<text x="434.5" y="312" font-family="Helvetica, Arial, sans-serif" font-size="11" fill="#666666" text-anchor="middle">10</text>
<text x="643.6" y="312" font-family="Helvetica, Arial, sans-serif" font-size="11" fill="#666666" text-anchor="middle">15</text>
<line x1="58" y1="56" x2="58" y2="296" stroke="#C9C9C9" stroke-width="1"/>
<line x1="58" y1="296" x2="725.6" y2="296" stroke="#C9C9C9" stroke-width="1"/>
<text x="58" y="46" font-family="Helvetica, Arial, sans-serif" font-size="11" fill="#777777">system t/s</text>
<text x="391.8" y="330" font-family="Helvetica, Arial, sans-serif" font-size="11" fill="#777777" text-anchor="middle">concurrent streams</text>
<polyline points="58.0,257.8 99.8,232.9 183.5,195.7 350.8,197.7 685.4,197.1" fill="none" stroke="#0072B2" stroke-width="2" stroke-linejoin="round"/>
<circle cx="58.0" cy="257.8" r="4" fill="#FFFFFF" stroke="#0072B2" stroke-width="2"/>
<circle cx="99.8" cy="232.9" r="4" fill="#FFFFFF" stroke="#0072B2" stroke-width="2"/>
<circle cx="183.5" cy="195.7" r="4" fill="#FFFFFF" stroke="#0072B2" stroke-width="2"/>
<circle cx="350.8" cy="197.7" r="4" fill="#FFFFFF" stroke="#0072B2" stroke-width="2"/>
<circle cx="685.4" cy="197.1" r="4" fill="#FFFFFF" stroke="#0072B2" stroke-width="2"/>
<text x="694.4" y="201.1" font-family="Helvetica, Arial, sans-serif" font-size="11" fill="#0072B2" font-weight="600">blazar · b11202-cuda</text>
<polyline points="58.0,278.2 99.8,296.0 183.5,296.0 350.8,272.0 685.4,280.6" fill="none" stroke="#CC79A7" stroke-width="2" stroke-linejoin="round"/>
<circle cx="58.0" cy="278.2" r="4" fill="#FFFFFF" stroke="#CC79A7" stroke-width="2"/>
<circle cx="99.8" cy="296.0" r="4" fill="#FFFFFF" stroke="#CC79A7" stroke-width="2"/>
<circle cx="183.5" cy="296.0" r="4" fill="#FFFFFF" stroke="#CC79A7" stroke-width="2"/>
<circle cx="350.8" cy="272.0" r="4" fill="#FFFFFF" stroke="#CC79A7" stroke-width="2"/>
<circle cx="685.4" cy="280.6" r="4" fill="#FFFFFF" stroke="#CC79A7" stroke-width="2"/>
<text x="694.4" y="284.6" font-family="Helvetica, Arial, sans-serif" font-size="11" fill="#CC79A7" font-weight="600">blazar · v0.9.4</text>
<polyline points="58.0,257.7 99.8,228.5 183.5,189.5 350.8,164.9 685.4,69.6" fill="none" stroke="#E69F00" stroke-width="2" stroke-linejoin="round"/>
<circle cx="58.0" cy="257.7" r="4" fill="#FFFFFF" stroke="#E69F00" stroke-width="2"/>
<circle cx="99.8" cy="228.5" r="4" fill="#FFFFFF" stroke="#E69F00" stroke-width="2"/>
<circle cx="183.5" cy="189.5" r="4" fill="#FFFFFF" stroke="#E69F00" stroke-width="2"/>
<circle cx="350.8" cy="164.9" r="4" fill="#FFFFFF" stroke="#E69F00" stroke-width="2"/>
<circle cx="685.4" cy="69.6" r="4" fill="#FFFFFF" stroke="#E69F00" stroke-width="2"/>
<text x="694.4" y="73.6" font-family="Helvetica, Arial, sans-serif" font-size="11" fill="#E69F00" font-weight="600">direct · b11202-cuda</text>
<polyline points="58.0,273.7 99.8,267.5 183.5,263.8 350.8,261.4 685.4,260.6" fill="none" stroke="#009E73" stroke-width="2" stroke-linejoin="round"/>
<circle cx="58.0" cy="273.7" r="4" fill="#FFFFFF" stroke="#009E73" stroke-width="2"/>
<circle cx="99.8" cy="267.5" r="4" fill="#FFFFFF" stroke="#009E73" stroke-width="2"/>
<circle cx="183.5" cy="263.8" r="4" fill="#FFFFFF" stroke="#009E73" stroke-width="2"/>
<circle cx="350.8" cy="261.4" r="4" fill="#FFFFFF" stroke="#009E73" stroke-width="2"/>
<circle cx="685.4" cy="260.6" r="4" fill="#FFFFFF" stroke="#009E73" stroke-width="2"/>
<text x="694.4" y="264.6" font-family="Helvetica, Arial, sans-serif" font-size="11" fill="#009E73" font-weight="600">ollama · ollama-host</text>
<text x="0" y="352" font-family="Helvetica, Arial, sans-serif" font-size="10.5" fill="#999999">Each point: one sustained-load lane cell. Higher is better.</text>
</svg>
